<?xml version="1.0" standalone="no"?>
<!DOCTYPE svg PUBLIC "-//W3C//DTD SVG 20010904//EN"
 "http://www.w3.org/TR/2001/REC-SVG-20010904/DTD/svg10.dtd">
<svg version="1.0" xmlns="http://www.w3.org/2000/svg"
 width="2826.000000pt" height="1064.000000pt" viewBox="0 0 2826.000000 1064.000000"
 preserveAspectRatio="xMidYMid meet">

<g transform="translate(0.000000,1064.000000) scale(0.100000,-0.100000)"
fill="#000000" stroke="none">
<path d="M1200 9621 c-76 -27 -143 -98 -165 -176 -21 -72 -15 -132 22 -202 23
-42 776 -792 3783 -3768 2737 -2708 3767 -3721 3800 -3738 63 -31 177 -31 237
1 139 73 192 241 116 371 -42 74 -7521 7473 -7583 7502 -64 30 -142 34 -210
10z"/>
<path d="M3375 8817 c-94 -46 -144 -127 -145 -232 0 -106 19 -131 301 -412
182 -181 267 -258 299 -272 51 -23 132 -27 192 -9 51 15 126 82 149 133 23 51
25 161 3 213 -19 46 -499 532 -563 569 -64 39 -168 43 -236 10z"/>
<path d="M1190 8301 c-120 -39 -202 -161 -186 -277 12 -94 36 -121 316 -376
169 -154 281 -248 310 -261 55 -25 149 -27 201 -5 50 22 107 74 130 121 41 80
34 199 -15 266 -36 48 -528 491 -571 513 -43 22 -144 33 -185 19z"/>
<path d="M4430 7811 c-80 -26 -136 -79 -165 -155 -22 -56 -17 -154 10 -209 28
-58 4309 -4293 4376 -4329 94 -51 228 -29 301 48 69 74 88 196 44 289 -19 42
-384 407 -2175 2180 -1184 1172 -2170 2141 -2192 2154 -43 26 -152 38 -199 22z"/>
<path d="M2095 7346 c-139 -64 -192 -227 -117 -357 18 -32 1001 -1017 2987
-2994 2780 -2767 2963 -2946 3015 -2966 218 -82 423 144 321 355 -15 29 -895
912 -2982 2990 -2475 2464 -2970 2952 -3013 2972 -68 32 -144 32 -211 0z"/>
<path d="M1215 6901 c-70 -18 -134 -71 -171 -141 -26 -48 -26 -171 0 -220 25
-48 382 -406 431 -433 56 -30 173 -30 230 0 93 49 138 123 139 228 1 55 -4 80
-23 117 -30 59 -369 397 -428 427 -47 23 -133 34 -178 22z"/>
<path d="M8195 6816 c-60 -27 -106 -77 -130 -140 -25 -64 -16 -160 19 -220 35
-60 525 -536 576 -559 171 -76 364 46 363 231 0 109 -17 132 -301 415 -184
183 -270 262 -302 276 -64 29 -160 28 -225 -3z"/>
<path d="M6845 6797 c-120 -48 -183 -146 -172 -267 2 -31 14 -74 25 -96 31
-60 1901 -1907 1960 -1936 68 -32 151 -31 224 5 89 44 140 126 141 227 0 118
46 68 -989 1091 -647 640 -959 942 -991 959 -53 28 -150 37 -198 17z"/>
<path d="M2121 5996 c-54 -19 -112 -75 -139 -134 -21 -46 -24 -65 -20 -121 3
-36 13 -82 23 -101 28 -56 382 -405 435 -429 55 -25 155 -28 207 -6 97 41 155
126 156 228 2 110 -7 123 -217 336 -216 218 -249 241 -351 240 -33 0 -75 -6
-94 -13z"/>
<path d="M3039 5081 c-81 -17 -158 -84 -188 -164 -17 -45 -13 -147 8 -192 20
-44 172 -197 2389 -2391 892 -883 1307 -1287 1339 -1304 63 -33 158 -34 226
-1 127 61 180 217 117 346 -28 59 -3664 3655 -3723 3684 -50 23 -118 32 -168
22z"/>
<path d="M3362 3352 c-130 -47 -197 -181 -157 -317 16 -58 20 -62 633 -669
339 -335 777 -768 972 -962 237 -235 370 -359 400 -375 121 -61 284 -1 341
126 25 54 25 156 0 211 -13 30 -178 199 -577 595 -308 304 -741 734 -964 955
-270 268 -420 409 -449 424 -61 31 -134 35 -199 12z"/>
</g>
</svg>
