<svg width="21" height="20" viewBox="0 0 21 20" fill="none" xmlns="http://www.w3.org/2000/svg">
<path d="M10.1201 14.6766V12.1396" stroke="#9E9E9E" stroke-width="1.5" stroke-linecap="round" stroke-linejoin="round"/>
<path fill-rule="evenodd" clip-rule="evenodd" d="M16.315 3.33008C18.005 3.33008 19.365 4.70008 19.365 6.39008V9.83008C16.905 11.2701 13.655 12.1401 10.115 12.1401C6.575 12.1401 3.335 11.2701 0.875 9.83008V6.38008C0.875 4.69008 2.245 3.33008 3.935 3.33008H16.315Z" stroke="#9E9E9E" stroke-width="1.5" stroke-linecap="round" stroke-linejoin="round"/>
<path d="M13.6201 3.32576V2.95976C13.6201 1.73976 12.6301 0.749756 11.4101 0.749756H8.83012C7.61012 0.749756 6.62012 1.73976 6.62012 2.95976V3.32576" stroke="#9E9E9E" stroke-width="1.5" stroke-linecap="round" stroke-linejoin="round"/>
<path d="M0.899414 13.4829L1.08841 15.9919C1.21641 17.6829 2.62541 18.9899 4.32041 18.9899H15.9194C17.6144 18.9899 19.0234 17.6829 19.1514 15.9919L19.3404 13.4829" stroke="#9E9E9E" stroke-width="1.5" stroke-linecap="round" stroke-linejoin="round"/>
</svg>
